<svg id="my-svg" width="100%" xmlns="http://www.w3.org/2000/svg" xmlns:xlink="http://www.w3.org/1999/xlink" class="classDiagram" style="max-width: 269.064px; background-color: white;" viewBox="0 0 269.064453125 632" role="graphics-document document" aria-roledescription="class"><style>#my-svg{font-family:"trebuchet ms",verdana,arial,sans-serif;font-size:16px;fill:#333;}@keyframes edge-animation-frame{from{stroke-dashoffset:0;}}@keyframes dash{to{stroke-dashoffset:0;}}#my-svg .edge-animation-slow{stroke-dasharray:9,5!important;stroke-dashoffset:900;animation:dash 50s linear infinite;stroke-linecap:round;}#my-svg .edge-animation-fast{stroke-dasharray:9,5!important;stroke-dashoffset:900;animation:dash 20s linear infinite;stroke-linecap:round;}#my-svg .error-icon{fill:#552222;}#my-svg .error-text{fill:#552222;stroke:#552222;}#my-svg .edge-thickness-normal{stroke-width:1px;}#my-svg .edge-thickness-thick{stroke-width:3.5px;}#my-svg .edge-pattern-solid{stroke-dasharray:0;}#my-svg .edge-thickness-invisible{stroke-width:0;fill:none;}#my-svg .edge-pattern-dashed{stroke-dasharray:3;}#my-svg .edge-pattern-dotted{stroke-dasharray:2;}#my-svg .marker{fill:#333333;stroke:#333333;}#my-svg .marker.cross{stroke:#333333;}#my-svg svg{font-family:"trebuchet ms",verdana,arial,sans-serif;font-size:16px;}#my-svg p{margin:0;}#my-svg g.classGroup text{fill:#9370DB;stroke:none;font-family:"trebuchet ms",verdana,arial,sans-serif;font-size:10px;}#my-svg g.classGroup text .title{font-weight:bolder;}#my-svg .nodeLabel,#my-svg .edgeLabel{color:#131300;}#my-svg .edgeLabel .label rect{fill:#ECECFF;}#my-svg .label text{fill:#131300;}#my-svg .labelBkg{background:#ECECFF;}#my-svg .edgeLabel .label span{background:#ECECFF;}#my-svg .classTitle{font-weight:bolder;}#my-svg .node rect,#my-svg .node circle,#my-svg .node ellipse,#my-svg .node polygon,#my-svg .node path{fill:#ECECFF;stroke:#9370DB;stroke-width:1px;}#my-svg .divider{stroke:#9370DB;stroke-width:1;}#my-svg g.clickable{cursor:pointer;}#my-svg g.classGroup rect{fill:#ECECFF;stroke:#9370DB;}#my-svg g.classGroup line{stroke:#9370DB;stroke-width:1;}#my-svg .classLabel .box{stroke:none;stroke-width:0;fill:#ECECFF;opacity:0.5;}#my-svg .classLabel .label{fill:#9370DB;font-size:10px;}#my-svg .relation{stroke:#333333;stroke-width:1;fill:none;}#my-svg .dashed-line{stroke-dasharray:3;}#my-svg .dotted-line{stroke-dasharray:1 2;}#my-svg #compositionStart,#my-svg .composition{fill:#333333!important;stroke:#333333!important;stroke-width:1;}#my-svg #compositionEnd,#my-svg .composition{fill:#333333!important;stroke:#333333!important;stroke-width:1;}#my-svg #dependencyStart,#my-svg .dependency{fill:#333333!important;stroke:#333333!important;stroke-width:1;}#my-svg #dependencyStart,#my-svg .dependency{fill:#333333!important;stroke:#333333!important;stroke-width:1;}#my-svg #extensionStart,#my-svg .extension{fill:transparent!important;stroke:#333333!important;stroke-width:1;}#my-svg #extensionEnd,#my-svg .extension{fill:transparent!important;stroke:#333333!important;stroke-width:1;}#my-svg #aggregationStart,#my-svg .aggregation{fill:transparent!important;stroke:#333333!important;stroke-width:1;}#my-svg #aggregationEnd,#my-svg .aggregation{fill:transparent!important;stroke:#333333!important;stroke-width:1;}#my-svg #lollipopStart,#my-svg .lollipop{fill:#ECECFF!important;stroke:#333333!important;stroke-width:1;}#my-svg #lollipopEnd,#my-svg .lollipop{fill:#ECECFF!important;stroke:#333333!important;stroke-width:1;}#my-svg .edgeTerminals{font-size:11px;line-height:initial;}#my-svg .classTitleText{text-anchor:middle;font-size:18px;fill:#333;}#my-svg .label-icon{display:inline-block;height:1em;overflow:visible;vertical-align:-0.125em;}#my-svg .node .label-icon path{fill:currentColor;stroke:revert;stroke-width:revert;}#my-svg :root{--mermaid-font-family:"trebuchet ms",verdana,arial,sans-serif;}</style><g><defs><marker id="my-svg_class-aggregationStart" class="marker aggregation class" refX="18" refY="7" markerWidth="190" markerHeight="240" orient="auto"><path d="M 18,7 L9,13 L1,7 L9,1 Z"/></marker></defs><defs><marker id="my-svg_class-aggregationEnd" class="marker aggregation class" refX="1" refY="7" markerWidth="20" markerHeight="28" orient="auto"><path d="M 18,7 L9,13 L1,7 L9,1 Z"/></marker></defs><defs><marker id="my-svg_class-extensionStart" class="marker extension class" refX="18" refY="7" markerWidth="190" markerHeight="240" orient="auto"><path d="M 1,7 L18,13 V 1 Z"/></marker></defs><defs><marker id="my-svg_class-extensionEnd" class="marker extension class" refX="1" refY="7" markerWidth="20" markerHeight="28" orient="auto"><path d="M 1,1 V 13 L18,7 Z"/></marker></defs><defs><marker id="my-svg_class-compositionStart" class="marker composition class" refX="18" refY="7" markerWidth="190" markerHeight="240" orient="auto"><path d="M 18,7 L9,13 L1,7 L9,1 Z"/></marker></defs><defs><marker id="my-svg_class-compositionEnd" class="marker composition class" refX="1" refY="7" markerWidth="20" markerHeight="28" orient="auto"><path d="M 18,7 L9,13 L1,7 L9,1 Z"/></marker></defs><defs><marker id="my-svg_class-dependencyStart" class="marker dependency class" refX="6" refY="7" markerWidth="190" markerHeight="240" orient="auto"><path d="M 5,7 L9,13 L1,7 L9,1 Z"/></marker></defs><defs><marker id="my-svg_class-dependencyEnd" class="marker dependency class" refX="13" refY="7" markerWidth="20" markerHeight="28" orient="auto"><path d="M 18,7 L9,13 L14,7 L9,1 Z"/></marker></defs><defs><marker id="my-svg_class-lollipopStart" class="marker lollipop class" refX="13" refY="7" markerWidth="190" markerHeight="240" orient="auto"><circle stroke="black" fill="transparent" cx="7" cy="7" r="6"/></marker></defs><defs><marker id="my-svg_class-lollipopEnd" class="marker lollipop class" refX="1" refY="7" markerWidth="190" markerHeight="240" orient="auto"><circle stroke="black" fill="transparent" cx="7" cy="7" r="6"/></marker></defs><g class="root"><g class="clusters"/><g class="edgePaths"><path d="M126.641,80.056L132.743,86.214C138.846,92.371,151.051,104.685,157.153,115.009C163.256,125.333,163.256,133.667,163.256,137.833L163.256,142" id="id_User_Like_1" class="edge-thickness-normal edge-pattern-solid relation" style=";;;" data-edge="true" data-et="edge" data-id="id_User_Like_1" data-points="W3sieCI6MTI2LjY0MDYyNSwieSI6ODAuMDU2Mjk1NzczNDA1MX0seyJ4IjoxNjMuMjU1ODU5Mzc1LCJ5IjoxMTd9LHsieCI6MTYzLjI1NTg1OTM3NSwieSI6MTQyfV0="/><path d="M67.063,80.056L60.96,86.214C54.857,92.371,42.652,104.685,36.55,131.009C30.447,157.333,30.447,197.667,30.447,238C30.447,278.333,30.447,318.667,32.355,343C34.264,367.333,38.08,375.667,39.988,379.833L41.896,384" id="id_User_Tweet_2" class="edge-thickness-normal edge-pattern-solid relation" style=";;;" data-edge="true" data-et="edge" data-id="id_User_Tweet_2" data-points="W3sieCI6NjcuMDYyNSwieSI6ODAuMDU2Mjk1NzczNDA1MX0seyJ4IjozMC40NDcyNjU2MjUsInkiOjExN30seyJ4IjozMC40NDcyNjU2MjUsInkiOjIzOH0seyJ4IjozMC40NDcyNjU2MjUsInkiOjM1OX0seyJ4Ijo0MS44OTYyODIzMjc1ODYyMDYsInkiOjM4NH1d"/><path d="M163.256,334L163.256,338.167C163.256,342.333,163.256,350.667,161.348,359C159.44,367.333,155.623,375.667,153.715,379.833L151.807,384" id="id_Like_Tweet_3" class="edge-thickness-normal edge-pattern-solid relation" style=";;;" data-edge="true" data-et="edge" data-id="id_Like_Tweet_3" data-points="W3sieCI6MTYzLjI1NTg1OTM3NSwieSI6MzM0fSx7IngiOjE2My4yNTU4NTkzNzUsInkiOjM1OX0seyJ4IjoxNTEuODA2ODQyNjcyNDEzNzgsInkiOjM4NH1d"/></g><g class="edgeLabels"><g class="edgeLabel"><g class="label" data-id="id_User_Like_1" transform="translate(0, 0)"><foreignObject width="0" height="0"><div xmlns="http://www.w3.org/1999/xhtml" class="labelBkg" style="display: table-cell; white-space: nowrap; line-height: 1.5; max-width: 200px; text-align: center;"><span class="edgeLabel"></span></div></foreignObject></g></g><g class="edgeLabel"><g class="label" data-id="id_User_Tweet_2" transform="translate(0, 0)"><foreignObject width="0" height="0"><div xmlns="http://www.w3.org/1999/xhtml" class="labelBkg" style="display: table-cell; white-space: nowrap; line-height: 1.5; max-width: 200px; text-align: center;"><span class="edgeLabel"></span></div></foreignObject></g></g><g class="edgeLabel"><g class="label" data-id="id_Like_Tweet_3" transform="translate(0, 0)"><foreignObject width="0" height="0"><div xmlns="http://www.w3.org/1999/xhtml" class="labelBkg" style="display: table-cell; white-space: nowrap; line-height: 1.5; max-width: 200px; text-align: center;"><span class="edgeLabel"></span></div></foreignObject></g></g></g><g class="nodes"><g class="node default" id="classId-Tweet-0" transform="translate(96.8515625, 504)"><g class="basic label-container"><path d="M-88.8515625 -120 L88.8515625 -120 L88.8515625 120 L-88.8515625 120" stroke="none" stroke-width="0" fill="#ECECFF" style=""/><path d="M-88.8515625 -120 C-21.951568161140102 -120, 44.948426177719796 -120, 88.8515625 -120 M-88.8515625 -120 C-27.623672774153633 -120, 33.604216951692734 -120, 88.8515625 -120 M88.8515625 -120 C88.8515625 -50.43533560684146, 88.8515625 19.129328786317075, 88.8515625 120 M88.8515625 -120 C88.8515625 -27.107362416750192, 88.8515625 65.78527516649962, 88.8515625 120 M88.8515625 120 C48.529789833333204 120, 8.208017166666409 120, -88.8515625 120 M88.8515625 120 C39.75129149697468 120, -9.34897950605064 120, -88.8515625 120 M-88.8515625 120 C-88.8515625 34.376867988493586, -88.8515625 -51.24626402301283, -88.8515625 -120 M-88.8515625 120 C-88.8515625 67.59110018159069, -88.8515625 15.18220036318138, -88.8515625 -120" stroke="#9370DB" stroke-width="1.3" fill="none" stroke-dasharray="0 0" style=""/></g><g class="annotation-group text" transform="translate(0, -96)"/><g class="label-group text" transform="translate(-22.078125, -96)"><g class="label" style="font-weight: bolder" transform="translate(0,-12)"><foreignObject width="44.15625" height="24"><div xmlns="http://www.w3.org/1999/xhtml" style="display: table-cell; white-space: nowrap; line-height: 1.5; max-width: 89px; text-align: center;"><span class="nodeLabel markdown-node-label" style=""><p>Tweet</p></span></div></foreignObject></g></g><g class="members-group text" transform="translate(-76.8515625, -48)"><g class="label" style="" transform="translate(0,-12)"><foreignObject width="56.015625" height="24"><div xmlns="http://www.w3.org/1999/xhtml" style="display: table-cell; white-space: nowrap; line-height: 1.5; max-width: 106px; text-align: center;"><span class="nodeLabel markdown-node-label" style=""><p>UUID id</p></span></div></foreignObject></g></g><g class="methods-group text" transform="translate(-76.8515625, 0)"><g class="label" style="" transform="translate(0,-12)"><foreignObject width="63.125" height="24"><div xmlns="http://www.w3.org/1999/xhtml" style="display: table-cell; white-space: nowrap; line-height: 1.5; max-width: 108px; text-align: center;"><span class="nodeLabel markdown-node-label" style=""><p>destroy()</p></span></div></foreignObject></g><g class="label" style="" transform="translate(0,12)"><foreignObject width="42.6875" height="24"><div xmlns="http://www.w3.org/1999/xhtml" style="display: table-cell; white-space: nowrap; line-height: 1.5; max-width: 88px; text-align: center;"><span class="nodeLabel markdown-node-label" style=""><p>read()</p></span></div></foreignObject></g><g class="label" style="" transform="translate(0,36)"><foreignObject width="41.796875" height="24"><div xmlns="http://www.w3.org/1999/xhtml" style="display: table-cell; white-space: nowrap; line-height: 1.5; max-width: 88px; text-align: center;"><span class="nodeLabel markdown-node-label" style=""><p>feed()</p></span></div></foreignObject></g><g class="label" style="" transform="translate(0,60)"><foreignObject width="127.15625" height="24"><div xmlns="http://www.w3.org/1999/xhtml" style="display: table-cell; white-space: nowrap; line-height: 1.5; max-width: 166px; text-align: center;"><span class="nodeLabel markdown-node-label" style=""><p>create(String text)</p></span></div></foreignObject></g><g class="label" style="" transform="translate(0,84)"><foreignObject width="131.625" height="24"><div xmlns="http://www.w3.org/1999/xhtml" style="display: table-cell; white-space: nowrap; line-height: 1.5; max-width: 170px; text-align: center;"><span class="nodeLabel markdown-node-label" style=""><p>update(String text)</p></span></div></foreignObject></g></g><g class="divider" style=""><path d="M-88.8515625 -72 C-39.896892055483704 -72, 9.057778389032592 -72, 88.8515625 -72 M-88.8515625 -72 C-21.760989526227803 -72, 45.329583447544394 -72, 88.8515625 -72" stroke="#9370DB" stroke-width="1.3" fill="none" stroke-dasharray="0 0" style=""/></g><g class="divider" style=""><path d="M-88.8515625 -24 C-37.07188100543602 -24, 14.707800489127962 -24, 88.8515625 -24 M-88.8515625 -24 C-50.695083170543505 -24, -12.53860384108701 -24, 88.8515625 -24" stroke="#9370DB" stroke-width="1.3" fill="none" stroke-dasharray="0 0" style=""/></g></g><g class="node default" id="classId-Like-1" transform="translate(163.255859375, 238)"><g class="basic label-container"><path d="M-97.80859375 -96 L97.80859375 -96 L97.80859375 96 L-97.80859375 96" stroke="none" stroke-width="0" fill="#ECECFF" style=""/><path d="M-97.80859375 -96 C-41.88948635174062 -96, 14.029621046518756 -96, 97.80859375 -96 M-97.80859375 -96 C-52.40100822184242 -96, -6.993422693684835 -96, 97.80859375 -96 M97.80859375 -96 C97.80859375 -24.811072019033745, 97.80859375 46.37785596193251, 97.80859375 96 M97.80859375 -96 C97.80859375 -46.06970733140136, 97.80859375 3.8605853371972785, 97.80859375 96 M97.80859375 96 C22.504045370165912 96, -52.800503009668176 96, -97.80859375 96 M97.80859375 96 C47.34324773843833 96, -3.122098273123342 96, -97.80859375 96 M-97.80859375 96 C-97.80859375 46.41706663530145, -97.80859375 -3.165866729397095, -97.80859375 -96 M-97.80859375 96 C-97.80859375 49.607965591031984, -97.80859375 3.2159311820639687, -97.80859375 -96" stroke="#9370DB" stroke-width="1.3" fill="none" stroke-dasharray="0 0" style=""/></g><g class="annotation-group text" transform="translate(0, -72)"/><g class="label-group text" transform="translate(-16.0078125, -72)"><g class="label" style="font-weight: bolder" transform="translate(0,-12)"><foreignObject width="32.015625" height="24"><div xmlns="http://www.w3.org/1999/xhtml" style="display: table-cell; white-space: nowrap; line-height: 1.5; max-width: 79px; text-align: center;"><span class="nodeLabel markdown-node-label" style=""><p>Like</p></span></div></foreignObject></g></g><g class="members-group text" transform="translate(-85.80859375, -24)"><g class="label" style="" transform="translate(0,-12)"><foreignObject width="56.015625" height="24"><div xmlns="http://www.w3.org/1999/xhtml" style="display: table-cell; white-space: nowrap; line-height: 1.5; max-width: 106px; text-align: center;"><span class="nodeLabel markdown-node-label" style=""><p>UUID id</p></span></div></foreignObject></g></g><g class="methods-group text" transform="translate(-85.80859375, 24)"><g class="label" style="" transform="translate(0,-12)"><foreignObject width="42.6875" height="24"><div xmlns="http://www.w3.org/1999/xhtml" style="display: table-cell; white-space: nowrap; line-height: 1.5; max-width: 88px; text-align: center;"><span class="nodeLabel markdown-node-label" style=""><p>read()</p></span></div></foreignObject></g><g class="label" style="" transform="translate(0,12)"><foreignObject width="137.8125" height="24"><div xmlns="http://www.w3.org/1999/xhtml" style="display: table-cell; white-space: nowrap; line-height: 1.5; max-width: 184px; text-align: center;"><span class="nodeLabel markdown-node-label" style=""><p>like(UUID tweet_id)</p></span></div></foreignObject></g><g class="label" style="" transform="translate(0,36)"><foreignObject width="155.609375" height="24"><div xmlns="http://www.w3.org/1999/xhtml" style="display: table-cell; white-space: nowrap; line-height: 1.5; max-width: 200px; text-align: center;"><span class="nodeLabel markdown-node-label" style=""><p>unlike(UUID tweet_id)</p></span></div></foreignObject></g></g><g class="divider" style=""><path d="M-97.80859375 -48 C-53.87453587068076 -48, -9.940477991361519 -48, 97.80859375 -48 M-97.80859375 -48 C-43.746200838553996 -48, 10.316192072892008 -48, 97.80859375 -48" stroke="#9370DB" stroke-width="1.3" fill="none" stroke-dasharray="0 0" style=""/></g><g class="divider" style=""><path d="M-97.80859375 0 C-24.27519530332883 0, 49.25820314334234 0, 97.80859375 0 M-97.80859375 0 C-54.57579535989506 0, -11.342996969790121 0, 97.80859375 0" stroke="#9370DB" stroke-width="1.3" fill="none" stroke-dasharray="0 0" style=""/></g></g><g class="node default" id="classId-User-2" transform="translate(96.8515625, 50)"><g class="basic label-container"><path d="M-29.7890625 -42 L29.7890625 -42 L29.7890625 42 L-29.7890625 42" stroke="none" stroke-width="0" fill="#ECECFF" style=""/><path d="M-29.7890625 -42 C-11.865471763728117 -42, 6.058118972543767 -42, 29.7890625 -42 M-29.7890625 -42 C-9.628138847227316 -42, 10.532784805545369 -42, 29.7890625 -42 M29.7890625 -42 C29.7890625 -20.93923117360634, 29.7890625 0.12153765278731754, 29.7890625 42 M29.7890625 -42 C29.7890625 -16.27616612281143, 29.7890625 9.447667754377143, 29.7890625 42 M29.7890625 42 C16.578709301545054 42, 3.368356103090104 42, -29.7890625 42 M29.7890625 42 C17.431170270781138 42, 5.073278041562272 42, -29.7890625 42 M-29.7890625 42 C-29.7890625 11.096933602389623, -29.7890625 -19.806132795220755, -29.7890625 -42 M-29.7890625 42 C-29.7890625 22.65032519162474, -29.7890625 3.300650383249483, -29.7890625 -42" stroke="#9370DB" stroke-width="1.3" fill="none" stroke-dasharray="0 0" style=""/></g><g class="annotation-group text" transform="translate(0, -18)"/><g class="label-group text" transform="translate(-17.7890625, -18)"><g class="label" style="font-weight: bolder" transform="translate(0,-12)"><foreignObject width="35.578125" height="24"><div xmlns="http://www.w3.org/1999/xhtml" style="display: table-cell; white-space: nowrap; line-height: 1.5; max-width: 81px; text-align: center;"><span class="nodeLabel markdown-node-label" style=""><p>User</p></span></div></foreignObject></g></g><g class="members-group text" transform="translate(-17.7890625, 30)"/><g class="methods-group text" transform="translate(-17.7890625, 60)"/><g class="divider" style=""><path d="M-29.7890625 6 C-8.475450902960144 6, 12.838160694079711 6, 29.7890625 6 M-29.7890625 6 C-13.952394940750107 6, 1.8842726184997858 6, 29.7890625 6" stroke="#9370DB" stroke-width="1.3" fill="none" stroke-dasharray="0 0" style=""/></g><g class="divider" style=""><path d="M-29.7890625 24 C-7.922317061244488 24, 13.944428377511024 24, 29.7890625 24 M-29.7890625 24 C-17.265233373719035 24, -4.741404247438069 24, 29.7890625 24" stroke="#9370DB" stroke-width="1.3" fill="none" stroke-dasharray="0 0" style=""/></g></g></g></g></g></svg>